<svg xmlns="http://www.w3.org/2000/svg" width="30" height="30" fill="none" viewBox="0 0 30 30">
    <path fill="#fff" fill-opacity=".2" stroke="#fff" d="M29.5 15c0 8.008-6.492 14.5-14.5 14.5S.5 23.008.5 15 6.992.5 15 .5 29.5 6.992 29.5 15z"/>
    <path fill="#fff" d="M5.169 9.17v11.649l5.681-5.848L5.17 9.168zM24.83 9.17v11.649l-5.652-5.825 5.653-5.825zM5.599 8.64h18.765l-7.375 7.68c-.525.546-1.25.855-2.008.855s-1.482-.309-2.007-.855L5.599 8.64z"/>
    <path fill="#fff" d="M17.414 16.729c-.633.659-1.52 1.037-2.433 1.037-.913 0-1.8-.378-2.433-1.037l-1.25-1.303-5.7 5.934h18.766l-5.699-5.934-1.25 1.303z"/>
</svg>
