<svg xmlns="http://www.w3.org/2000/svg" width="20" height="20" fill="none" viewBox="0 0 20 20">
    <g clip-path="url(#clip0)">
        <path fill="#fff" d="M19.219 9.133H10.78V.774C10.781.347 10.431 0 10 0c-.431 0-.781.347-.781.774v8.359H.78c-.431 0-.781.346-.781.774 0 .427.35.774.781.774H9.22v8.359c0 .427.35.774.781.774.431 0 .781-.347.781-.774v-8.36h8.438c.431 0 .781-.346.781-.773 0-.428-.35-.774-.781-.774z"/>
    </g>
    <defs>
        <clipPath id="clip0">
            <path fill="#fff" d="M0 0H20V19.814H0z"/>
        </clipPath>
    </defs>
</svg>
